# xmcd CD database file
#
# Track frame offsets:
#	150
#	12492
#	24837
#	39130
#	52855
#	66227
#	78685
#	91325
#	103370
#	115157
#	128265
#	142582
#	155030
#	167185
#	178710
#	190757
#	204190
#	220455
#	235515
#	247815
#	259597
#	272160
#
# Disc length: 3793 seconds
#
# Revision: 0
# Processed by: cddbd v1.5PL3 Copyright (c) Steve Scherf et al.
# Submitted via: CDex 1.51
#
DISCID=1d0ecf16
DTITLE=Various Artist - ANTHOLOGY OF THE WESTERN SWING
DYEAR=2002
DGENRE=Jazz
TTITLE0=THE SHEIK OF ARABY - MILTON BROWN AND HIS BROWNIES 1936
TTITLE1=EASY RIDIN' PAPA - MILTON BROWN AND HIS BROWNIES 1936
TTITLE2=ON THE SUNNY SIDE OF THE STREET - THE RICE BROTHERS' GANG 1936
TTITLE3=KING COTTON STOMP - THE RICE BROTHERS' GANG 1936
TTITLE4=HONEY SUCKLE ROSE - NORMAN PHELPS AND THE VIRGINIA ROUNDERS 1936
TTITLE5=IT'S TIGHT LIKE THAT - NORMAN PHELPS AND THE VIRGINIA ROUNDERS 1936
TTITLE6=BLUE SKIES - BOB DUNN'S VAGABONDS 1938
TTITLE7=JUKE BOX RAG - BOB DUNN'S VAGABONDS 1938
TTITLE8=BOYS'S TIN ROOF BLUES - BILL BOYD'S COWBOY RAMBLERS 1935
TTITLE9=BARN DANCE RAG - BILLBOYD'S COWBOY RAMBLERS 1938
TTITLE10=MISSISSIPPI SANDMAN - MODERN MOUNTAINEERS 1937
TTITLE11=MOONLIGHT IN OKLAHOMA - SMOKEY WOOD AND THE WOODCHIPS 1937
TTITLE12=HILLBILLY SWING - JIMMIE REVARD AND HIS OKLAHOMA PLAYBOYS 1937
TTITLE13=SQUARE DANCE BOOGIE - JOHNNIE LEE WILLS AND HIS BOYS 1940
TTITLE14=NO HUGGIN' NO KISSIN' - HARTMANS' HERTBREAKERS 1936
TTITLE15=LET ME PLAY WITH IT - HARTMAN'S HERTBREAKERS 1936
TTITLE16=BLACK AND BLUES - OCIE STOCKARD AND THE WANDERERS 1937
TTITLE17=HOW COME? - OCIE STOCKARD AND THE WANDERERS 1937
TTITLE18=TWIN GUITER SPECIAL - BOB WILLS AND THE TEXAS PLAYBOYS 1941
TTITLE19=OH! YOU PRETTY WOMAN - BOB WILLS AND THE TEXAS PLAYBOYS 1941
TTITLE20=BRAIN CLOUDY BLUES - BOB WILLS AND THE TEXAS PLAYBOYS 1946
TTITLE21=SWING WITH THE MUSIC - ADOLPH HOFNER AND HIS SAN ANTONIANS 1942
EXTD=YEAR: 2002
EXTT0=
EXTT1=
EXTT2=
EXTT3=
EXTT4=
EXTT5=
EXTT6=
EXTT7=
EXTT8=
EXTT9=
EXTT10=
EXTT11=
EXTT12=
EXTT13=
EXTT14=
EXTT15=
EXTT16=
EXTT17=
EXTT18=
EXTT19=
EXTT20=
EXTT21=
PLAYORDER=
